<?xml version="1.0" encoding="utf-8"?>
<!-- Generator: Adobe Illustrator 28.1.0, SVG Export Plug-In . SVG Version: 6.00 Build 0)  -->
<svg version="1.1" id="Capa_1" xmlns="http://www.w3.org/2000/svg" xmlns:xlink="http://www.w3.org/1999/xlink" x="0px" y="0px"
	 width="245" height="56" viewBox="0 0 245 56" style="enable-background:new 0 0 245 56;" xml:space="preserve">
<style type="text/css">
	.st0{fill:#FFFFFF;}
	.st1{fill:#00206F;}
</style>
<g>
	<g>
		<g>
			<path class="st0" d="M239.4,0.2c0,0-92.3,0-97.5,0c-0.3,0-0.6,0-0.9,0l-7.3,0c0,0,0.1,0,0.1,0H20.3c-6.5,0-10.2,3.5-11.5,7.6
				L0.4,31c-1.3,4.1,1,7.5,5.2,7.5l102.8,0c0.2,0,0.3,0,0.5,0l6.2,0c0,0-0.1,0-0.1,0h18.6c0.1,0,0.3,0,0.4,0c0.2,0,0.4,0,0.7,0h90.8
				c5.3-0.1,9.6-3.5,10.8-7.5l8.4-23.2C245.9,3.7,243.6,0.2,239.4,0.2z"/>
			<path class="st0" d="M240.4,35.4c0-0.9-0.9-0.9-1.1-0.9h-1v2.8h0.7v-1.1h0.1l0.6,1.1h0.7l-0.7-1.1
				C240.1,36.1,240.4,35.9,240.4,35.4z M239.3,35.6H239v-0.6h0.3c0.2,0,0.4,0,0.4,0.3C239.7,35.6,239.4,35.6,239.3,35.6z"/>
			<path class="st0" d="M239.3,33.3c-1.4,0-2.6,1.2-2.6,2.6c0,1.5,1.2,2.6,2.6,2.6c1.4,0,2.6-1.2,2.6-2.6
				C241.8,34.5,240.7,33.3,239.3,33.3z M239.3,37.9c-1,0-1.9-0.9-1.9-2c0-1.1,0.8-2,1.9-2c1,0,1.9,0.9,1.9,2
				C241.1,37,240.3,37.9,239.3,37.9z"/>
		</g>
		<g>
			<polygon class="st1" points="103.5,30.5 112.3,6.3 106.4,6.3 102.9,15.9 92.7,15.9 96.2,6.3 90.3,6.3 81.5,30.5 87.4,30.5
				91.2,20.1 101.4,20.1 97.6,30.5 			"/>
			<path class="st1" d="M239.4,0.2c0,0-92.3,0-97.5,0c-4.9,0-7.2,1.4-10.9,5.1c-1.1,1.1-2.1,2.4-2.9,3.6c-1.4,2-3.8,6-3.8,6
				l-5.7,8.8l-0.5-11.2h-6.5l1.5,15.6c0.2,2.4,0.5,3.3-1.9,5.2c-0.8,0.6-2.6,1.8-5.2,1.8H80.1c-3.5,0-5.5-2.8-4.4-6.2l6.9-19
				c1.1-3.4,4.8-6.2,8.2-6.2h37c1.6-1.4,3.6-2.8,6-3.4H20.3c-6.5,0-10.2,3.5-11.5,7.6L0.4,31c-1.3,4.1,1,7.5,5.2,7.5l102.8,0
				c6.8-0.1,9.8-5.9,12.4-9.8l5.1-7.6h0l7-10.8c1.9-2.9,4.4-5,6.5-5.8c1.6-0.6,3.3-0.7,6.4-0.8l88.1,0c0.2,0,0.4,0,0.6,0h5
				c1.1,0,2,0.9,2,2c0,0.2,0,0.4-0.1,0.6l0,0.1l-8.3,22.5c-1.1,3.4-4.7,6.2-8.2,6.2h-77.8c0.7-0.5,1.2-1.2,1.7-2.2
				c0.7-1.9,0.5-3.4-0.5-4.2c-1-0.9-4-1.3-6.3-1.3h-4.6c-0.8,0-1.3-0.1-1.6-0.3c-0.2-0.2-0.3-0.5-0.1-0.9c0.2-0.6,0.7-1,1.5-1.3
				c0.5,0.1,1.1,0.2,1.8,0.2c2.7,0,5.1-0.6,7.1-1.8c2-1.2,3.3-2.8,4.1-4.7c0.2-0.6,0.3-1.2,0.3-1.8c0-0.6-0.1-0.9-0.3-1.3
				c0,0,1-0.3,2.3-0.2c1.2,0.1,2,0.3,2,0.3l1.1-2.9c0,0-1.4-0.1-3,0.1c-1.4,0.1-3.7,0.7-3.7,0.7c-0.3-0.3-1.2-0.9-2-1.1
				c-0.4-0.1-0.9-0.2-1.5-0.3c-0.5-0.1-1.1-0.1-1.6-0.1c-1.3,0-2.5,0.2-3.7,0.5c-1.2,0.3-2.3,0.7-3.3,1.3c-1,0.6-1.9,1.3-2.6,2.1
				c-0.7,0.8-1.3,1.7-1.7,2.7c-0.3,0.7-0.4,1.3-0.4,1.9c0,0.6,0.1,1.1,0.3,1.5c0.2,0.4,0.4,0.8,0.7,1.1c0.3,0.3,0.6,0.6,1,0.8
				c-1,0.4-1.9,0.8-2.7,1.5c-0.8,0.6-1.5,1.3-1.7,2.2c-0.6,2.6,1.2,3.7,3.6,3.8h5.6c1.1,0,3.3,0.1,3.7,0.4c0.4,0.3,0.5,0.8,0.3,1.5
				c-0.2,0.7-1.3,1.7-6.7,2h-0.2L121,35c-1,1-3.1,2.7-6.1,3.4h18.6c0.1,0,0.3,0,0.4,0c0.2,0,0.4,0,0.7,0h90.8
				c5.3-0.1,9.6-3.5,10.8-7.5l8.4-23.2C245.9,3.7,243.6,0.2,239.4,0.2z M27,21.4c-1.4,0.3-2.9,0.5-4.4,0.5h-3l-3.2,8.8h-6.2
				l8.9-24.5h9.6c1.6,0,3,0.2,4.1,0.5C34,7,34.9,7.5,35.6,8.2c0.7,0.7,1.1,1.5,1.3,2.4c0.2,0.9,0,2-0.4,3.2
				c-0.5,1.4-1.2,2.6-2.2,3.6c-0.9,1-2,1.9-3.3,2.5C29.8,20.6,28.4,21.1,27,21.4z M45.9,17.3c-1.2,0.8-2.1,2.2-2.8,4l-3.4,9.4h-6
				l0.1-0.2c0-0.1,4.7-12.5,5.1-14c0.4-1.4-0.2-3-0.2-3l-0.1-0.2l5.8-1.1l0.1,0.1c0,0,0.3,0.6,0.2,2.7c0.7-0.8,1.8-1.5,3-2.1
				c1.3-0.8,2.9-1.1,4.5-1.1c0.7,0,1.3,0.1,1.7,0.2l0.2,0.1l-2.5,4.4l-0.1,0c-0.4-0.1-1-0.2-1.6-0.2C48.4,16.1,47.1,16.5,45.9,17.3z
				 M73.2,21.3c-0.6,1.5-1.3,2.9-2.3,4.1c-1,1.2-2.1,2.2-3.4,3.1c-1.3,0.8-2.7,1.5-4.1,1.9c-1.5,0.5-3,0.7-4.5,0.7
				c-1.5,0-2.8-0.2-4-0.6c-1.1-0.4-2.1-1-2.7-1.9c-0.7-0.8-1-1.8-1.2-3c-0.1-1.2,0.1-2.5,0.7-4c0.6-1.6,1.4-3,2.4-4.2
				c1-1.2,2.1-2.3,3.4-3.1c1.3-0.8,2.6-1.5,4.1-1.9c1.5-0.4,3-0.7,4.4-0.7c1.5,0,2.8,0.2,4,0.6c1.1,0.4,2.1,1,2.7,1.8
				c0.7,0.8,1.1,1.8,1.2,3v0C74,18.4,73.8,19.7,73.2,21.3z M138.4,18.4c0.4-1,0.9-1.7,1.7-2.2c0.8-0.5,1.6-0.8,2.6-0.8
				c0.9,0,1.6,0.3,2,0.8c0.4,0.5,0.4,1.3,0.1,2.3c-0.4,1-0.9,1.8-1.7,2.3c-0.8,0.5-1.6,0.8-2.6,0.8c-0.9,0-1.6-0.3-2-0.8
				C138,20.2,138,19.4,138.4,18.4z"/>
			<path class="st1" d="M29.7,11.3c-0.7-0.6-1.8-0.8-3.2-0.8h-2.8l-2.6,7h2.2c0.7,0,1.5-0.1,2.2-0.2c0.7-0.1,1.3-0.3,1.9-0.6
				c0.6-0.3,1.1-0.7,1.6-1.1c0.4-0.5,0.8-1,1-1.7C30.5,12.7,30.4,11.9,29.7,11.3z"/>
			<path class="st1" d="M66.2,16.1c-0.5-0.2-1-0.3-1.6-0.3c-0.6,0-1.2,0.1-1.8,0.3c-0.6,0.2-1.2,0.5-1.8,0.9c-0.6,0.4-1.1,1-1.6,1.7
				c-0.5,0.7-1,1.7-1.4,2.8c-0.4,1-0.5,1.8-0.5,2.5c0,0.7,0.1,1.3,0.4,1.7c0.3,0.4,0.6,0.8,1.1,1c0.9,0.4,2.1,0.4,3.3,0
				c0.6-0.2,1.2-0.5,1.8-1c0.6-0.4,1.1-1,1.6-1.8c0.5-0.7,1-1.6,1.4-2.7c0.4-1,0.6-1.9,0.6-2.6c0-0.7-0.1-1.3-0.4-1.7
				C67,16.6,66.6,16.3,66.2,16.1z"/>
			<polygon class="st1" points="153.1,30.5 158.8,30.5 165.4,12.2 159.7,12.2 			"/>
			<polygon class="st1" points="160.4,10.3 166.1,10.3 168.1,4.8 162.4,4.8 			"/>
			<path class="st1" d="M179.3,11.8c-1.5,0-3,0.2-4.5,0.7c-1.4,0.5-2.8,1.1-4,2c-1.2,0.8-2.3,1.9-3.2,3.1c-0.9,1.2-1.6,2.5-2.2,4
				c-0.6,1.6-0.8,3-0.6,4.2c0.2,1.2,0.6,2.2,1.4,2.9c0.7,0.8,1.7,1.3,2.9,1.7c1.2,0.4,2.6,0.6,4.2,0.6c1.6,0,3-0.1,4.3-0.4
				c1.3-0.2,2.3-0.5,3.2-0.9l0.3-3.6c-0.8,0.3-1.7,0.5-2.6,0.7c-0.9,0.2-2,0.3-3.1,0.3c-1.8,0-3.1-0.4-4-1.1
				c-0.9-0.7-1.1-1.8-0.5-3.3l0.1-0.2h13.6l0.8-2.3c1-2.7,0.9-4.8-0.2-6.3C184,12.6,182.1,11.8,179.3,11.8z M180.2,17.8
				c0,0.5-0.1,0.9-0.3,1.4l-7.7,0.1c0.6-1.2,1.4-2.1,2.4-2.8c1-0.7,2.1-1,3.2-1c0.6,0,1.1,0.1,1.5,0.3c0.4,0.2,0.6,0.5,0.8,0.8
				C180.2,16.9,180.3,17.3,180.2,17.8z"/>
			<path class="st1" d="M185.6,30.5h5.7l4.5-12.3c0.8-0.9,1.9-1.6,2.9-2c0.9-0.4,1.8-0.6,2.5-0.6c1,0,1.7,0.3,2,0.8
				c0.3,0.6,0.3,1.3,0,2.2l-4.3,11.7h5.7l4.5-12.2c0.8-2.1,0.7-3.7-0.1-4.8c-0.8-1.1-2.3-1.7-4.6-1.7c-1.4,0-2.7,0.2-4,0.7
				c-1.3,0.5-2.7,1.6-4,2.5c0,0,0.1-1,0.1-1.5c0-0.8-0.3-1.2-0.3-1.2l-5.7,1.1c0,0,0.6,1.8,0.1,3.3
				C190.2,18.3,185.6,30.5,185.6,30.5z"/>
			<path class="st1" d="M217.3,22.7h13.6l0.8-2.3c1-2.7,0.9-4.8-0.2-6.3c-1.1-1.5-3-2.3-5.8-2.3c-1.5,0-3,0.2-4.5,0.7
				c-1.4,0.5-2.8,1.1-4,2c-1.2,0.8-2.3,1.9-3.2,3.1c-0.9,1.2-1.6,2.5-2.2,4c-0.6,1.6-0.8,3-0.6,4.2c0.2,1.2,0.6,2.2,1.4,2.9
				c0.7,0.8,1.7,1.3,2.9,1.7c1.2,0.4,2.6,0.6,4.2,0.6c1.6,0,3-0.1,4.3-0.4c1.3-0.2,2.3-0.5,3.2-0.9l0.3-3.6
				c-0.8,0.3-1.7,0.5-2.6,0.7c-0.9,0.2-2,0.3-3.1,0.3c-1.8,0-3.1-0.4-4-1.1c-0.9-0.7-1.1-1.8-0.5-3.3L217.3,22.7z M221,16.5
				c1-0.7,2.1-1,3.2-1c0.6,0,1.1,0.1,1.5,0.3c0.4,0.2,0.6,0.5,0.8,0.8c0.2,0.3,0.2,0.7,0.2,1.2c0,0.5-0.1,0.9-0.3,1.4l-7.7,0.1
				C219.3,18.1,220,17.2,221,16.5z"/>
			<path class="st1" d="M240.4,35.4c0-0.9-0.9-0.9-1.1-0.9h-1v2.8h0.7v-1.1h0.1l0.6,1.1h0.7l-0.7-1.1
				C240.1,36.1,240.4,35.9,240.4,35.4z M239.3,35.6H239v-0.6h0.3c0.2,0,0.4,0,0.4,0.3C239.7,35.6,239.4,35.6,239.3,35.6z"/>
			<path class="st1" d="M239.3,33.3c-1.4,0-2.6,1.2-2.6,2.6c0,1.5,1.2,2.6,2.6,2.6c1.4,0,2.6-1.2,2.6-2.6
				C241.8,34.5,240.7,33.3,239.3,33.3z M239.3,37.9c-1,0-1.9-0.9-1.9-2c0-1.1,0.8-2,1.9-2c1,0,1.9,0.9,1.9,2
				C241.1,37,240.3,37.9,239.3,37.9z"/>
		</g>
	</g>
	<g>
		<path class="st1" d="M8.2,52.3h5.1v1.1H7v-8.8h6.2v1.1H8.2V52.3z M8.1,48.4h4.5v1.1H8.1V48.4z"/>
		<path class="st1" d="M14.1,53.4l2.9-3.7l0,0.6l-2.7-3.5h1.3l2.1,2.7h-0.5l2.1-2.7h1.3l-2.8,3.6l0-0.6l2.9,3.7h-1.4l-2.2-2.9
			l0.5,0.1l-2.2,2.8H14.1z"/>
		<path class="st1" d="M22,55.8v-9.1h1.2v1.8L23,50.1l0.1,1.5v4.2H22z M25.5,53.5c-0.6,0-1.1-0.1-1.5-0.4c-0.5-0.3-0.8-0.6-1.1-1.1
			c-0.3-0.5-0.4-1.1-0.4-1.9c0-0.8,0.1-1.4,0.4-1.9c0.3-0.5,0.6-0.9,1.1-1.1c0.5-0.3,1-0.4,1.5-0.4c0.7,0,1.2,0.1,1.7,0.4
			c0.5,0.3,0.9,0.7,1.2,1.2c0.3,0.5,0.4,1.1,0.4,1.8c0,0.7-0.1,1.3-0.4,1.8c-0.3,0.5-0.7,0.9-1.2,1.2C26.7,53.3,26.1,53.5,25.5,53.5
			z M25.4,52.4c0.4,0,0.8-0.1,1.1-0.3c0.3-0.2,0.6-0.5,0.8-0.8c0.2-0.4,0.3-0.8,0.3-1.2c0-0.5-0.1-0.9-0.3-1.2
			c-0.2-0.3-0.5-0.6-0.8-0.8c-0.3-0.2-0.7-0.3-1.1-0.3c-0.4,0-0.8,0.1-1.1,0.3c-0.3,0.2-0.6,0.5-0.8,0.8c-0.2,0.3-0.3,0.8-0.3,1.2
			c0,0.5,0.1,0.9,0.3,1.2c0.2,0.4,0.5,0.6,0.8,0.8S24.9,52.4,25.4,52.4z"/>
		<path class="st1" d="M33.4,53.5c-0.7,0-1.3-0.1-1.9-0.4c-0.5-0.3-1-0.7-1.3-1.2c-0.3-0.5-0.4-1.1-0.4-1.8c0-0.7,0.1-1.2,0.4-1.8
			c0.3-0.5,0.7-0.9,1.2-1.2c0.5-0.3,1.1-0.4,1.7-0.4c0.6,0,1.2,0.1,1.7,0.4c0.5,0.3,0.9,0.7,1.2,1.2c0.3,0.5,0.4,1.1,0.4,1.8
			c0,0.1,0,0.1,0,0.2c0,0.1,0,0.1,0,0.2h-5.6v-0.9h5l-0.5,0.3c0-0.4-0.1-0.8-0.3-1.1c-0.2-0.3-0.4-0.6-0.8-0.8
			c-0.3-0.2-0.7-0.3-1.1-0.3c-0.4,0-0.8,0.1-1.1,0.3c-0.3,0.2-0.6,0.5-0.8,0.8c-0.2,0.3-0.3,0.7-0.3,1.2v0.2c0,0.4,0.1,0.8,0.3,1.2
			c0.2,0.3,0.5,0.6,0.9,0.8c0.4,0.2,0.8,0.3,1.3,0.3c0.4,0,0.7-0.1,1.1-0.2c0.3-0.1,0.6-0.3,0.8-0.6l0.7,0.8
			c-0.3,0.4-0.7,0.6-1.1,0.8C34.5,53.4,34,53.5,33.4,53.5z"/>
		<path class="st1" d="M38.1,53.4v-6.6h1.2v1.8l-0.1-0.5c0.2-0.5,0.5-0.8,0.9-1.1c0.4-0.2,1-0.4,1.6-0.4v1.2c0,0-0.1,0-0.1,0
			c0,0-0.1,0-0.1,0c-0.6,0-1.2,0.2-1.5,0.6c-0.4,0.4-0.6,0.9-0.6,1.7v3.3H38.1z"/>
		<path class="st1" d="M42.5,47.7v-1h4.2v1H42.5z M45.7,53.5c-0.7,0-1.2-0.2-1.6-0.5c-0.4-0.4-0.6-0.9-0.6-1.5v-6.1h1.2v6
			c0,0.4,0.1,0.6,0.3,0.8c0.2,0.2,0.4,0.3,0.8,0.3c0.4,0,0.7-0.1,0.9-0.3l0.4,0.9c-0.2,0.2-0.4,0.3-0.7,0.4
			C46.3,53.4,46,53.5,45.7,53.5z"/>
		<path class="st1" d="M51.2,53.5c-0.7,0-1.3-0.1-1.8-0.4c-0.5-0.3-0.9-0.7-1.2-1.2c-0.3-0.5-0.5-1.1-0.5-1.7c0-0.7,0.2-1.2,0.5-1.8
			c0.3-0.5,0.7-0.9,1.2-1.2c0.5-0.3,1.1-0.4,1.8-0.4c0.7,0,1.2,0.1,1.8,0.4c0.5,0.3,0.9,0.7,1.2,1.2c0.3,0.5,0.4,1.1,0.4,1.8
			c0,0.7-0.1,1.2-0.4,1.8c-0.3,0.5-0.7,0.9-1.2,1.2C52.5,53.3,51.9,53.5,51.2,53.5z M51.2,52.4c0.4,0,0.8-0.1,1.1-0.3
			s0.6-0.5,0.8-0.8c0.2-0.4,0.3-0.8,0.3-1.2c0-0.5-0.1-0.9-0.3-1.2c-0.2-0.3-0.5-0.6-0.8-0.8c-0.3-0.2-0.7-0.3-1.1-0.3
			c-0.4,0-0.8,0.1-1.1,0.3c-0.3,0.2-0.6,0.5-0.8,0.8c-0.2,0.3-0.3,0.8-0.3,1.2c0,0.5,0.1,0.9,0.3,1.2c0.2,0.4,0.5,0.6,0.8,0.8
			C50.4,52.3,50.8,52.4,51.2,52.4z"/>
		<path class="st1" d="M58.3,53.5c-0.6,0-1.1-0.1-1.6-0.2c-0.5-0.2-0.9-0.3-1.2-0.6l0.5-1c0.3,0.2,0.6,0.4,1.1,0.5
			c0.4,0.1,0.8,0.2,1.3,0.2c0.6,0,1-0.1,1.2-0.2c0.2-0.2,0.4-0.4,0.4-0.7c0-0.2-0.1-0.4-0.2-0.5c-0.2-0.1-0.3-0.2-0.6-0.3
			c-0.2-0.1-0.5-0.1-0.8-0.2c-0.3,0-0.6-0.1-0.9-0.2c-0.3-0.1-0.6-0.2-0.8-0.3c-0.3-0.1-0.5-0.3-0.6-0.5c-0.2-0.2-0.2-0.5-0.2-0.9
			c0-0.4,0.1-0.8,0.3-1.1c0.2-0.3,0.5-0.5,1-0.7c0.4-0.2,0.9-0.2,1.5-0.2c0.4,0,0.9,0.1,1.3,0.2c0.4,0.1,0.8,0.3,1.1,0.4l-0.5,1
			c-0.3-0.2-0.6-0.3-0.9-0.4c-0.3-0.1-0.7-0.1-1-0.1c-0.5,0-0.9,0.1-1.2,0.3c-0.3,0.2-0.4,0.4-0.4,0.7c0,0.2,0.1,0.4,0.2,0.5
			c0.2,0.1,0.4,0.2,0.6,0.3c0.2,0.1,0.5,0.1,0.8,0.2c0.3,0,0.6,0.1,0.9,0.2c0.3,0.1,0.6,0.2,0.8,0.3c0.2,0.1,0.4,0.3,0.6,0.5
			c0.2,0.2,0.2,0.5,0.2,0.9c0,0.4-0.1,0.7-0.4,1c-0.2,0.3-0.6,0.5-1,0.7C59.4,53.4,58.8,53.5,58.3,53.5z"/>
		<path class="st1" d="M67.9,53.5c-0.5,0-0.9-0.1-1.3-0.3c-0.4-0.2-0.7-0.4-0.9-0.7c-0.2-0.3-0.3-0.6-0.3-1c0-0.4,0.1-0.7,0.3-1
			c0.2-0.3,0.5-0.5,0.8-0.7c0.4-0.2,0.9-0.3,1.6-0.3h2.1v0.9h-2.1c-0.6,0-1,0.1-1.2,0.3c-0.2,0.2-0.3,0.4-0.3,0.7
			c0,0.3,0.1,0.6,0.4,0.8c0.3,0.2,0.6,0.3,1.1,0.3c0.5,0,0.8-0.1,1.2-0.3c0.3-0.2,0.6-0.5,0.7-0.9l0.2,0.8c-0.2,0.4-0.4,0.7-0.8,0.9
			C69,53.3,68.5,53.5,67.9,53.5z M70.1,53.4V52L70,51.7v-2.4c0-0.5-0.1-0.9-0.4-1.2c-0.3-0.3-0.7-0.4-1.3-0.4
			c-0.4,0-0.8,0.1-1.2,0.2c-0.4,0.1-0.7,0.3-1,0.5l-0.5-0.9c0.3-0.3,0.8-0.5,1.2-0.6c0.5-0.1,1-0.2,1.5-0.2c0.9,0,1.6,0.2,2.1,0.7
			c0.5,0.4,0.7,1.1,0.7,2v4H70.1z"/>
		<path class="st1" d="M73.5,53.4v-9.3h1.2v9.3H73.5z"/>
		<path class="st1" d="M82.2,53.5c-0.6,0-1.1-0.1-1.6-0.2c-0.5-0.2-0.9-0.3-1.2-0.6l0.5-1c0.3,0.2,0.6,0.4,1.1,0.5
			c0.4,0.1,0.8,0.2,1.3,0.2c0.6,0,1-0.1,1.2-0.2c0.2-0.2,0.4-0.4,0.4-0.7c0-0.2-0.1-0.4-0.2-0.5c-0.2-0.1-0.3-0.2-0.6-0.3
			c-0.2-0.1-0.5-0.1-0.8-0.2c-0.3,0-0.6-0.1-0.9-0.2c-0.3-0.1-0.6-0.2-0.8-0.3c-0.3-0.1-0.5-0.3-0.6-0.5c-0.2-0.2-0.2-0.5-0.2-0.9
			c0-0.4,0.1-0.8,0.3-1.1c0.2-0.3,0.5-0.5,1-0.7c0.4-0.2,0.9-0.2,1.5-0.2c0.4,0,0.9,0.1,1.3,0.2c0.4,0.1,0.8,0.3,1.1,0.4l-0.5,1
			c-0.3-0.2-0.6-0.3-0.9-0.4c-0.3-0.1-0.7-0.1-1-0.1c-0.5,0-0.9,0.1-1.2,0.3c-0.3,0.2-0.4,0.4-0.4,0.7c0,0.2,0.1,0.4,0.2,0.5
			c0.2,0.1,0.4,0.2,0.6,0.3c0.2,0.1,0.5,0.1,0.8,0.2c0.3,0,0.6,0.1,0.9,0.2c0.3,0.1,0.6,0.2,0.8,0.3c0.2,0.1,0.4,0.3,0.6,0.5
			c0.2,0.2,0.2,0.5,0.2,0.9c0,0.4-0.1,0.7-0.4,1c-0.2,0.3-0.6,0.5-1,0.7C83.3,53.4,82.8,53.5,82.2,53.5z"/>
		<path class="st1" d="M89.5,53.5c-0.7,0-1.3-0.1-1.9-0.4c-0.5-0.3-1-0.7-1.3-1.2c-0.3-0.5-0.4-1.1-0.4-1.8c0-0.7,0.1-1.2,0.4-1.8
			c0.3-0.5,0.7-0.9,1.2-1.2c0.5-0.3,1.1-0.4,1.7-0.4c0.6,0,1.2,0.1,1.7,0.4c0.5,0.3,0.9,0.7,1.2,1.2c0.3,0.5,0.4,1.1,0.4,1.8
			c0,0.1,0,0.1,0,0.2c0,0.1,0,0.1,0,0.2h-5.6v-0.9h5l-0.5,0.3c0-0.4-0.1-0.8-0.3-1.1c-0.2-0.3-0.4-0.6-0.8-0.8
			c-0.3-0.2-0.7-0.3-1.1-0.3c-0.4,0-0.8,0.1-1.1,0.3c-0.3,0.2-0.6,0.5-0.8,0.8c-0.2,0.3-0.3,0.7-0.3,1.2v0.2c0,0.4,0.1,0.8,0.3,1.2
			c0.2,0.3,0.5,0.6,0.9,0.8c0.4,0.2,0.8,0.3,1.3,0.3c0.4,0,0.7-0.1,1.1-0.2c0.3-0.1,0.6-0.3,0.8-0.6l0.7,0.8
			c-0.3,0.4-0.7,0.6-1.1,0.8C90.6,53.4,90.1,53.5,89.5,53.5z"/>
		<path class="st1" d="M94.2,53.4v-6.6h1.2v1.8l-0.1-0.5c0.2-0.5,0.5-0.8,0.9-1.1c0.4-0.2,1-0.4,1.6-0.4v1.2c-0.1,0-0.1,0-0.1,0
			s-0.1,0-0.1,0c-0.6,0-1.2,0.2-1.5,0.6c-0.4,0.4-0.6,0.9-0.6,1.7v3.3H94.2z"/>
		<path class="st1" d="M101.3,53.4l-2.9-6.6h1.3l2.6,6h-0.6l2.6-6h1.2l-2.9,6.6H101.3z"/>
		<path class="st1" d="M107.1,45.5c-0.2,0-0.4-0.1-0.6-0.2c-0.2-0.2-0.2-0.3-0.2-0.6c0-0.2,0.1-0.4,0.2-0.6c0.2-0.2,0.3-0.2,0.6-0.2
			c0.2,0,0.4,0.1,0.6,0.2c0.2,0.1,0.2,0.3,0.2,0.5c0,0.2-0.1,0.4-0.2,0.6C107.6,45.4,107.4,45.5,107.1,45.5z M106.5,53.4v-6.6h1.2
			v6.6H106.5z"/>
		<path class="st1" d="M112.9,53.5c-0.7,0-1.3-0.1-1.8-0.4c-0.5-0.3-0.9-0.7-1.2-1.2c-0.3-0.5-0.5-1.1-0.5-1.8
			c0-0.7,0.2-1.2,0.5-1.8c0.3-0.5,0.7-0.9,1.2-1.2c0.5-0.3,1.1-0.4,1.8-0.4c0.6,0,1.1,0.1,1.6,0.4c0.5,0.2,0.8,0.6,1.1,1.1l-0.9,0.6
			c-0.2-0.3-0.5-0.6-0.8-0.7c-0.3-0.2-0.6-0.2-1-0.2c-0.4,0-0.8,0.1-1.2,0.3c-0.3,0.2-0.6,0.5-0.8,0.8c-0.2,0.3-0.3,0.8-0.3,1.2
			c0,0.5,0.1,0.9,0.3,1.2c0.2,0.4,0.5,0.6,0.8,0.8c0.3,0.2,0.7,0.3,1.2,0.3c0.4,0,0.7-0.1,1-0.2c0.3-0.2,0.6-0.4,0.8-0.7l0.9,0.6
			c-0.3,0.5-0.6,0.8-1.1,1.1C114.1,53.3,113.5,53.5,112.9,53.5z"/>
		<path class="st1" d="M117.7,45.5c-0.2,0-0.4-0.1-0.6-0.2c-0.2-0.2-0.2-0.3-0.2-0.6c0-0.2,0.1-0.4,0.2-0.6c0.2-0.2,0.3-0.2,0.6-0.2
			c0.2,0,0.4,0.1,0.6,0.2c0.2,0.1,0.2,0.3,0.2,0.5c0,0.2-0.1,0.4-0.2,0.6C118.1,45.4,117.9,45.5,117.7,45.5z M117.1,53.4v-6.6h1.2
			v6.6H117.1z"/>
		<path class="st1" d="M123.4,53.5c-0.7,0-1.3-0.1-1.8-0.4c-0.5-0.3-0.9-0.7-1.2-1.2c-0.3-0.5-0.5-1.1-0.5-1.7
			c0-0.7,0.2-1.2,0.5-1.8c0.3-0.5,0.7-0.9,1.2-1.2c0.5-0.3,1.1-0.4,1.8-0.4c0.7,0,1.2,0.1,1.8,0.4c0.5,0.3,0.9,0.7,1.2,1.2
			c0.3,0.5,0.4,1.1,0.4,1.8c0,0.7-0.1,1.2-0.4,1.8c-0.3,0.5-0.7,0.9-1.2,1.2C124.7,53.3,124.1,53.5,123.4,53.5z M123.4,52.4
			c0.4,0,0.8-0.1,1.1-0.3c0.3-0.2,0.6-0.5,0.8-0.8c0.2-0.4,0.3-0.8,0.3-1.2c0-0.5-0.1-0.9-0.3-1.2c-0.2-0.3-0.5-0.6-0.8-0.8
			c-0.3-0.2-0.7-0.3-1.1-0.3s-0.8,0.1-1.1,0.3c-0.3,0.2-0.6,0.5-0.8,0.8c-0.2,0.3-0.3,0.8-0.3,1.2c0,0.5,0.1,0.9,0.3,1.2
			c0.2,0.4,0.5,0.6,0.8,0.8S123,52.4,123.4,52.4z"/>
		<path class="st1" d="M134.6,53.5c-0.6,0-1.2-0.1-1.7-0.4c-0.5-0.3-0.9-0.7-1.2-1.2c-0.3-0.5-0.4-1.1-0.4-1.8
			c0-0.7,0.1-1.3,0.4-1.8c0.3-0.5,0.7-0.9,1.2-1.2c0.5-0.3,1.1-0.4,1.7-0.4c0.6,0,1.1,0.1,1.5,0.4c0.5,0.3,0.8,0.6,1.1,1.1
			c0.3,0.5,0.4,1.1,0.4,1.9c0,0.8-0.1,1.4-0.4,1.9c-0.3,0.5-0.6,0.9-1.1,1.1C135.7,53.3,135.2,53.5,134.6,53.5z M134.7,52.4
			c0.4,0,0.8-0.1,1.1-0.3s0.6-0.5,0.8-0.8c0.2-0.4,0.3-0.8,0.3-1.2c0-0.5-0.1-0.9-0.3-1.2c-0.2-0.3-0.5-0.6-0.8-0.8
			c-0.3-0.2-0.7-0.3-1.1-0.3c-0.4,0-0.8,0.1-1.1,0.3c-0.3,0.2-0.6,0.5-0.8,0.8c-0.2,0.3-0.3,0.8-0.3,1.2c0,0.5,0.1,0.9,0.3,1.2
			c0.2,0.4,0.5,0.6,0.8,0.8C133.9,52.3,134.3,52.4,134.7,52.4z M137,53.4v-1.8l0.1-1.5l-0.1-1.5v-4.4h1.2v9.3H137z"/>
		<path class="st1" d="M143.4,53.5c-0.7,0-1.3-0.1-1.9-0.4c-0.5-0.3-1-0.7-1.3-1.2c-0.3-0.5-0.4-1.1-0.4-1.8c0-0.7,0.1-1.2,0.4-1.8
			c0.3-0.5,0.7-0.9,1.2-1.2c0.5-0.3,1.1-0.4,1.7-0.4c0.6,0,1.2,0.1,1.7,0.4c0.5,0.3,0.9,0.7,1.2,1.2c0.3,0.5,0.4,1.1,0.4,1.8
			c0,0.1,0,0.1,0,0.2c0,0.1,0,0.1,0,0.2h-5.6v-0.9h5l-0.5,0.3c0-0.4-0.1-0.8-0.3-1.1c-0.2-0.3-0.4-0.6-0.8-0.8
			c-0.3-0.2-0.7-0.3-1.1-0.3c-0.4,0-0.8,0.1-1.1,0.3c-0.3,0.2-0.6,0.5-0.8,0.8c-0.2,0.3-0.3,0.7-0.3,1.2v0.2c0,0.4,0.1,0.8,0.3,1.2
			c0.2,0.3,0.5,0.6,0.9,0.8c0.4,0.2,0.8,0.3,1.3,0.3c0.4,0,0.7-0.1,1.1-0.2c0.3-0.1,0.6-0.3,0.8-0.6l0.7,0.8
			c-0.3,0.4-0.7,0.6-1.1,0.8C144.4,53.4,143.9,53.5,143.4,53.5z"/>
		<path class="st1" d="M150.5,47.7v-1h4.2v1H150.5z M153.7,53.5c-0.7,0-1.2-0.2-1.6-0.5c-0.4-0.4-0.6-0.9-0.6-1.5v-6.1h1.2v6
			c0,0.4,0.1,0.6,0.3,0.8c0.2,0.2,0.4,0.3,0.8,0.3c0.4,0,0.7-0.1,0.9-0.3l0.4,0.9c-0.2,0.2-0.4,0.3-0.7,0.4
			C154.3,53.4,154,53.5,153.7,53.5z"/>
		<path class="st1" d="M159.4,53.5c-0.6,0-1.1-0.1-1.5-0.3c-0.4-0.2-0.8-0.5-1-1c-0.2-0.4-0.4-1-0.4-1.6v-3.8h1.2v3.7
			c0,0.7,0.2,1.1,0.5,1.5c0.3,0.3,0.8,0.5,1.3,0.5c0.4,0,0.8-0.1,1.1-0.3c0.3-0.2,0.5-0.4,0.7-0.8c0.2-0.3,0.2-0.7,0.2-1.2v-3.4h1.2
			v6.6h-1.1v-1.8l0.2,0.5c-0.2,0.4-0.5,0.8-1,1C160.4,53.3,159.9,53.5,159.4,53.5z"/>
		<path class="st1" d="M168.5,53.4v-9.3h1.2v4.4l-0.1,1.5l0.1,1.5v1.8H168.5z M172,53.5c-0.6,0-1.1-0.1-1.5-0.4
			c-0.5-0.3-0.8-0.6-1.1-1.1c-0.3-0.5-0.4-1.1-0.4-1.9c0-0.8,0.1-1.4,0.4-1.9c0.3-0.5,0.6-0.9,1.1-1.1c0.5-0.3,1-0.4,1.5-0.4
			c0.7,0,1.2,0.1,1.7,0.4c0.5,0.3,0.9,0.7,1.2,1.2c0.3,0.5,0.4,1.1,0.4,1.8c0,0.7-0.1,1.3-0.4,1.8c-0.3,0.5-0.7,0.9-1.2,1.2
			C173.2,53.3,172.6,53.5,172,53.5z M171.9,52.4c0.4,0,0.8-0.1,1.1-0.3s0.6-0.5,0.8-0.8c0.2-0.4,0.3-0.8,0.3-1.2
			c0-0.5-0.1-0.9-0.3-1.2c-0.2-0.3-0.5-0.6-0.8-0.8c-0.3-0.2-0.7-0.3-1.1-0.3c-0.4,0-0.8,0.1-1.1,0.3c-0.3,0.2-0.6,0.5-0.8,0.8
			c-0.2,0.3-0.3,0.8-0.3,1.2c0,0.5,0.1,0.9,0.3,1.2c0.2,0.4,0.5,0.6,0.8,0.8S171.4,52.4,171.9,52.4z"/>
		<path class="st1" d="M177.6,45.5c-0.2,0-0.4-0.1-0.6-0.2c-0.2-0.2-0.2-0.3-0.2-0.6c0-0.2,0.1-0.4,0.2-0.6c0.2-0.2,0.3-0.2,0.6-0.2
			c0.2,0,0.4,0.1,0.6,0.2c0.2,0.1,0.2,0.3,0.2,0.5c0,0.2-0.1,0.4-0.2,0.6C178,45.4,177.8,45.5,177.6,45.5z M177,53.4v-6.6h1.2v6.6
			H177z"/>
		<path class="st1" d="M183.4,53.5c-0.7,0-1.3-0.1-1.9-0.4c-0.5-0.3-1-0.7-1.3-1.2c-0.3-0.5-0.4-1.1-0.4-1.8c0-0.7,0.1-1.2,0.4-1.8
			c0.3-0.5,0.7-0.9,1.2-1.2c0.5-0.3,1.1-0.4,1.7-0.4c0.6,0,1.2,0.1,1.7,0.4c0.5,0.3,0.9,0.7,1.2,1.2c0.3,0.5,0.4,1.1,0.4,1.8
			c0,0.1,0,0.1,0,0.2c0,0.1,0,0.1,0,0.2h-5.6v-0.9h5l-0.5,0.3c0-0.4-0.1-0.8-0.3-1.1c-0.2-0.3-0.4-0.6-0.8-0.8
			c-0.3-0.2-0.7-0.3-1.1-0.3c-0.4,0-0.8,0.1-1.1,0.3c-0.3,0.2-0.6,0.5-0.8,0.8c-0.2,0.3-0.3,0.7-0.3,1.2v0.2c0,0.4,0.1,0.8,0.3,1.2
			c0.2,0.3,0.5,0.6,0.9,0.8c0.4,0.2,0.8,0.3,1.3,0.3c0.4,0,0.7-0.1,1.1-0.2c0.3-0.1,0.6-0.3,0.8-0.6l0.7,0.8
			c-0.3,0.4-0.7,0.6-1.1,0.8C184.5,53.4,184,53.5,183.4,53.5z"/>
		<path class="st1" d="M191.7,46.7c0.5,0,1,0.1,1.4,0.3c0.4,0.2,0.7,0.5,1,1c0.2,0.4,0.4,1,0.4,1.6v3.8h-1.2v-3.7
			c0-0.6-0.2-1.1-0.5-1.5c-0.3-0.3-0.8-0.5-1.3-0.5c-0.4,0-0.8,0.1-1.1,0.3c-0.3,0.2-0.6,0.4-0.7,0.7c-0.2,0.3-0.3,0.7-0.3,1.2v3.4
			h-1.2v-6.6h1.2v1.8l-0.2-0.5c0.2-0.4,0.6-0.8,1-1C190.5,46.8,191.1,46.7,191.7,46.7z"/>
		<path class="st1" d="M199.6,53.5c-0.7,0-1.3-0.1-1.9-0.4c-0.5-0.3-1-0.7-1.3-1.2c-0.3-0.5-0.4-1.1-0.4-1.8c0-0.7,0.1-1.2,0.4-1.8
			c0.3-0.5,0.7-0.9,1.2-1.2c0.5-0.3,1.1-0.4,1.7-0.4c0.6,0,1.2,0.1,1.7,0.4c0.5,0.3,0.9,0.7,1.2,1.2c0.3,0.5,0.4,1.1,0.4,1.8
			c0,0.1,0,0.1,0,0.2c0,0.1,0,0.1,0,0.2H197v-0.9h5l-0.5,0.3c0-0.4-0.1-0.8-0.3-1.1c-0.2-0.3-0.4-0.6-0.8-0.8
			c-0.3-0.2-0.7-0.3-1.1-0.3c-0.4,0-0.8,0.1-1.1,0.3c-0.3,0.2-0.6,0.5-0.8,0.8c-0.2,0.3-0.3,0.7-0.3,1.2v0.2c0,0.4,0.1,0.8,0.3,1.2
			c0.2,0.3,0.5,0.6,0.9,0.8c0.4,0.2,0.8,0.3,1.3,0.3c0.4,0,0.7-0.1,1.1-0.2c0.3-0.1,0.6-0.3,0.8-0.6l0.7,0.8
			c-0.3,0.4-0.7,0.6-1.1,0.8C200.6,53.4,200.1,53.5,199.6,53.5z"/>
		<path class="st1" d="M206.2,53.5c-0.6,0-1.1-0.1-1.6-0.2c-0.5-0.2-0.9-0.3-1.2-0.6l0.5-1c0.3,0.2,0.6,0.4,1.1,0.5
			c0.4,0.1,0.8,0.2,1.3,0.2c0.6,0,1-0.1,1.2-0.2c0.2-0.2,0.4-0.4,0.4-0.7c0-0.2-0.1-0.4-0.2-0.5c-0.2-0.1-0.3-0.2-0.6-0.3
			c-0.2-0.1-0.5-0.1-0.8-0.2c-0.3,0-0.6-0.1-0.9-0.2c-0.3-0.1-0.6-0.2-0.8-0.3c-0.3-0.1-0.5-0.3-0.6-0.5c-0.2-0.2-0.2-0.5-0.2-0.9
			c0-0.4,0.1-0.8,0.3-1.1c0.2-0.3,0.5-0.5,1-0.7c0.4-0.2,0.9-0.2,1.5-0.2c0.4,0,0.9,0.1,1.3,0.2c0.4,0.1,0.8,0.3,1.1,0.4l-0.5,1
			c-0.3-0.2-0.6-0.3-0.9-0.4c-0.3-0.1-0.7-0.1-1-0.1c-0.5,0-0.9,0.1-1.2,0.3c-0.3,0.2-0.4,0.4-0.4,0.7c0,0.2,0.1,0.4,0.2,0.5
			c0.2,0.1,0.4,0.2,0.6,0.3c0.2,0.1,0.5,0.1,0.8,0.2c0.3,0,0.6,0.1,0.9,0.2c0.3,0.1,0.6,0.2,0.8,0.3c0.2,0.1,0.4,0.3,0.6,0.5
			c0.2,0.2,0.2,0.5,0.2,0.9c0,0.4-0.1,0.7-0.4,1c-0.2,0.3-0.6,0.5-1,0.7C207.3,53.4,206.8,53.5,206.2,53.5z"/>
		<path class="st1" d="M209.6,47.7v-1h4.2v1H209.6z M212.8,53.5c-0.7,0-1.2-0.2-1.6-0.5c-0.4-0.4-0.6-0.9-0.6-1.5v-6.1h1.2v6
			c0,0.4,0.1,0.6,0.3,0.8c0.2,0.2,0.4,0.3,0.8,0.3c0.4,0,0.7-0.1,0.9-0.3l0.4,0.9c-0.2,0.2-0.4,0.3-0.7,0.4
			C213.4,53.4,213.1,53.5,212.8,53.5z"/>
		<path class="st1" d="M217.7,53.5c-0.5,0-0.9-0.1-1.3-0.3c-0.4-0.2-0.7-0.4-0.9-0.7c-0.2-0.3-0.3-0.6-0.3-1c0-0.4,0.1-0.7,0.3-1
			c0.2-0.3,0.5-0.5,0.8-0.7c0.4-0.2,0.9-0.3,1.6-0.3h2.1v0.9h-2.1c-0.6,0-1,0.1-1.2,0.3c-0.2,0.2-0.3,0.4-0.3,0.7
			c0,0.3,0.1,0.6,0.4,0.8c0.3,0.2,0.6,0.3,1.1,0.3c0.5,0,0.8-0.1,1.2-0.3c0.3-0.2,0.6-0.5,0.7-0.9l0.2,0.8c-0.2,0.4-0.4,0.7-0.8,0.9
			C218.8,53.3,218.3,53.5,217.7,53.5z M219.9,53.4V52l-0.1-0.3v-2.4c0-0.5-0.1-0.9-0.4-1.2c-0.3-0.3-0.7-0.4-1.3-0.4
			c-0.4,0-0.8,0.1-1.2,0.2c-0.4,0.1-0.7,0.3-1,0.5l-0.5-0.9c0.3-0.3,0.8-0.5,1.2-0.6c0.5-0.1,1-0.2,1.5-0.2c0.9,0,1.6,0.2,2.1,0.7
			c0.5,0.4,0.7,1.1,0.7,2v4H219.9z"/>
		<path class="st1" d="M223.2,53.4v-6.6h1.2v1.8l-0.1-0.5c0.2-0.5,0.5-0.8,0.9-1.1c0.4-0.2,1-0.4,1.6-0.4v1.2c-0.1,0-0.1,0-0.1,0
			c0,0-0.1,0-0.1,0c-0.6,0-1.2,0.2-1.5,0.6c-0.4,0.4-0.6,0.9-0.6,1.7v3.3H223.2z"/>
	</g>
</g>
</svg>
